<svg xmlns="http://www.w3.org/2000/svg" xmlns:xlink="http://www.w3.org/1999/xlink" width="20" height="20" viewBox="0 0 20 20">
    <defs>
        <path id="a" d="M12.58 0a4.103 4.103 0 0 1 4.092 4.092v8.488a4.103 4.103 0 0 1-4.092 4.092H4.092A4.103 4.103 0 0 1 0 12.58V4.092A4.103 4.103 0 0 1 4.092 0h8.488zm2.37 12.387h-.009V4.286a2.564 2.564 0 0 0-2.554-2.555H4.286A2.564 2.564 0 0 0 1.73 4.286v8.1a2.564 2.564 0 0 0 2.555 2.555h8.109a2.564 2.564 0 0 0 2.555-2.554zm3.319-8.303A4.09 4.09 0 0 1 20 7.42v8.488A4.103 4.103 0 0 1 15.908 20H7.42c-1.37 0-2.596-.69-3.336-1.731H15.714a2.564 2.564 0 0 0 2.555-2.555V4.084zM8.244 4.067a4.266 4.266 0 0 1 4.26 4.26 4.271 4.271 0 0 1-4.26 4.261 4.271 4.271 0 0 1-4.26-4.26 4.266 4.266 0 0 1 4.26-4.26zm0 6.698a2.435 2.435 0 0 0 2.428-2.429 2.435 2.435 0 0 0-2.428-2.428 2.435 2.435 0 0 0-2.429 2.428 2.435 2.435 0 0 0 2.429 2.429zM12.513 5a.941.941 0 1 1 0-1.882.941.941 0 0 1 0 1.882z"/>
    </defs>
    <g fill-rule="evenodd">
        <use fill-rule="nonzero" xlink:href="#a"/>
    </g>
</svg>
